<mxfile host="app.diagrams.net" modified="2024-05-30T08:32:03.471Z" agent="Mozilla/5.0 (Windows NT 10.0; Win64; x64) AppleWebKit/537.36 (KHTML, like Gecko) Chrome/125.0.0.0 Safari/537.36" etag="3RY9pkQvXk5v_E1PcIn1" version="24.4.9" type="google">
  <diagram name="Page-1" id="yc9GzlA9wYeP0GU-YVik">
    <mxGraphModel grid="1" page="1" gridSize="10" guides="1" tooltips="1" connect="1" arrows="1" fold="1" pageScale="1" pageWidth="827" pageHeight="1169" math="0" shadow="0">
      <root>
        <mxCell id="0" />
        <mxCell id="1" parent="0" />
        <mxCell id="Sd6IH-jzS2WDO4m0EdWX-3" value="" style="edgeStyle=orthogonalEdgeStyle;rounded=0;orthogonalLoop=1;jettySize=auto;html=1;" edge="1" parent="1" source="Sd6IH-jzS2WDO4m0EdWX-1" target="Sd6IH-jzS2WDO4m0EdWX-2">
          <mxGeometry relative="1" as="geometry" />
        </mxCell>
        <mxCell id="Sd6IH-jzS2WDO4m0EdWX-1" value="START" style="ellipse;whiteSpace=wrap;html=1;" vertex="1" parent="1">
          <mxGeometry x="40" y="80" width="120" height="80" as="geometry" />
        </mxCell>
        <mxCell id="LleY3d3V7QsOfVH4p6SG-35" value="" style="edgeStyle=orthogonalEdgeStyle;rounded=0;orthogonalLoop=1;jettySize=auto;html=1;" edge="1" parent="1" source="Sd6IH-jzS2WDO4m0EdWX-2" target="LleY3d3V7QsOfVH4p6SG-34">
          <mxGeometry relative="1" as="geometry" />
        </mxCell>
        <mxCell id="Sd6IH-jzS2WDO4m0EdWX-2" value="INPUT kalimat" style="shape=parallelogram;perimeter=parallelogramPerimeter;whiteSpace=wrap;html=1;fixedSize=1;" vertex="1" parent="1">
          <mxGeometry x="200" y="90" width="120" height="60" as="geometry" />
        </mxCell>
        <mxCell id="LleY3d3V7QsOfVH4p6SG-9" value="saya belajar javascript" style="text;html=1;align=center;verticalAlign=middle;resizable=0;points=[];autosize=1;strokeColor=none;fillColor=none;" vertex="1" parent="1">
          <mxGeometry x="200" y="58" width="140" height="30" as="geometry" />
        </mxCell>
        <mxCell id="7CUttHo1583P5TF1gWP4-8" value="" style="edgeStyle=orthogonalEdgeStyle;rounded=0;orthogonalLoop=1;jettySize=auto;html=1;entryX=0;entryY=0.5;entryDx=0;entryDy=0;" edge="1" parent="1" source="LleY3d3V7QsOfVH4p6SG-34" target="7CUttHo1583P5TF1gWP4-9">
          <mxGeometry relative="1" as="geometry">
            <mxPoint x="510" y="120.00000000000023" as="targetPoint" />
          </mxGeometry>
        </mxCell>
        <mxCell id="LleY3d3V7QsOfVH4p6SG-34" value="hasil= [] ,&lt;br&gt;&lt;div&gt;&lt;span style=&quot;background-color: initial;&quot;&gt;kataSemetara = &quot;&quot; ,&lt;/span&gt;&lt;/div&gt;&lt;div&gt;karakter = &quot;&quot; ,&lt;br&gt;&lt;/div&gt;&lt;div&gt;i = 0 ,&lt;/div&gt;&lt;div&gt;j =0&lt;/div&gt;" style="rounded=0;whiteSpace=wrap;html=1;" vertex="1" parent="1">
          <mxGeometry x="384" y="80" width="120" height="80" as="geometry" />
        </mxCell>
        <mxCell id="7CUttHo1583P5TF1gWP4-18" style="edgeStyle=orthogonalEdgeStyle;rounded=0;orthogonalLoop=1;jettySize=auto;html=1;entryX=0.5;entryY=0;entryDx=0;entryDy=0;" edge="1" parent="1" source="LleY3d3V7QsOfVH4p6SG-46" target="7CUttHo1583P5TF1gWP4-11">
          <mxGeometry relative="1" as="geometry" />
        </mxCell>
        <mxCell id="LleY3d3V7QsOfVH4p6SG-46" value="i = i + 1" style="rounded=0;whiteSpace=wrap;html=1;" vertex="1" parent="1">
          <mxGeometry x="697" y="-30" width="120" height="60" as="geometry" />
        </mxCell>
        <mxCell id="7CUttHo1583P5TF1gWP4-12" value="" style="edgeStyle=orthogonalEdgeStyle;rounded=0;orthogonalLoop=1;jettySize=auto;html=1;" edge="1" parent="1" source="7CUttHo1583P5TF1gWP4-9" target="7CUttHo1583P5TF1gWP4-11">
          <mxGeometry relative="1" as="geometry" />
        </mxCell>
        <mxCell id="7CUttHo1583P5TF1gWP4-9" value="panjangKalimat = kalimat.length" style="rounded=0;whiteSpace=wrap;html=1;" vertex="1" parent="1">
          <mxGeometry x="560" y="90" width="120" height="60" as="geometry" />
        </mxCell>
        <mxCell id="YjiKDLAB807z-zuWr3qL-20" value="" style="edgeStyle=orthogonalEdgeStyle;rounded=0;orthogonalLoop=1;jettySize=auto;html=1;" edge="1" parent="1" source="7CUttHo1583P5TF1gWP4-11" target="YjiKDLAB807z-zuWr3qL-19">
          <mxGeometry relative="1" as="geometry" />
        </mxCell>
        <mxCell id="YjiKDLAB807z-zuWr3qL-23" value="TRUE" style="edgeLabel;html=1;align=center;verticalAlign=middle;resizable=0;points=[];" connectable="0" vertex="1" parent="YjiKDLAB807z-zuWr3qL-20">
          <mxGeometry x="-0.2368" y="1" relative="1" as="geometry">
            <mxPoint y="1" as="offset" />
          </mxGeometry>
        </mxCell>
        <mxCell id="YjiKDLAB807z-zuWr3qL-70" value="" style="edgeStyle=orthogonalEdgeStyle;rounded=0;orthogonalLoop=1;jettySize=auto;html=1;" edge="1" parent="1" source="7CUttHo1583P5TF1gWP4-11" target="7CUttHo1583P5TF1gWP4-70">
          <mxGeometry relative="1" as="geometry" />
        </mxCell>
        <mxCell id="7CUttHo1583P5TF1gWP4-11" value="i &amp;gt;= panjangKalimat" style="rhombus;whiteSpace=wrap;html=1;" vertex="1" parent="1">
          <mxGeometry x="717" y="80" width="80" height="80" as="geometry" />
        </mxCell>
        <mxCell id="YjiKDLAB807z-zuWr3qL-54" style="rounded=0;orthogonalLoop=1;jettySize=auto;html=1;entryX=1;entryY=1;entryDx=0;entryDy=0;exitX=0;exitY=0.5;exitDx=0;exitDy=0;" edge="1" parent="1" source="7CUttHo1583P5TF1gWP4-34" target="7CUttHo1583P5TF1gWP4-11">
          <mxGeometry relative="1" as="geometry" />
        </mxCell>
        <mxCell id="7CUttHo1583P5TF1gWP4-34" value="&lt;font style=&quot;font-size: 10px;&quot;&gt;hasil[hasil.length] = kataSementara&lt;/font&gt;&lt;div&gt;&lt;font style=&quot;font-size: 10px;&quot;&gt;AND&lt;/font&gt;&lt;/div&gt;&lt;div&gt;&lt;span style=&quot;font-size: 10px;&quot;&gt;kataSementara = &quot;&quot;&lt;/span&gt;&lt;/div&gt;&lt;div&gt;&lt;span style=&quot;font-size: 10px;&quot;&gt;AND&lt;/span&gt;&lt;/div&gt;&lt;div&gt;&lt;span style=&quot;font-size: 10px;&quot;&gt;j = j + 1&lt;/span&gt;&lt;/div&gt;" style="rounded=0;whiteSpace=wrap;html=1;" vertex="1" parent="1">
          <mxGeometry x="988" y="200" width="170" height="90" as="geometry" />
        </mxCell>
        <mxCell id="7CUttHo1583P5TF1gWP4-40" value="penampung&amp;nbsp;" style="text;html=1;align=center;verticalAlign=middle;whiteSpace=wrap;rounded=0;" vertex="1" parent="1">
          <mxGeometry x="414" y="55.5" width="60" height="25.5" as="geometry" />
        </mxCell>
        <mxCell id="7CUttHo1583P5TF1gWP4-55" value="hitung panjang kalimat" style="text;html=1;align=center;verticalAlign=middle;resizable=0;points=[];autosize=1;strokeColor=none;fillColor=none;" vertex="1" parent="1">
          <mxGeometry x="550" y="58" width="140" height="30" as="geometry" />
        </mxCell>
        <mxCell id="7CUttHo1583P5TF1gWP4-60" value="" style="edgeStyle=orthogonalEdgeStyle;rounded=0;orthogonalLoop=1;jettySize=auto;html=1;" edge="1" parent="1" source="7CUttHo1583P5TF1gWP4-57" target="7CUttHo1583P5TF1gWP4-59">
          <mxGeometry relative="1" as="geometry" />
        </mxCell>
        <mxCell id="7CUttHo1583P5TF1gWP4-57" value="panjangKata = hasil.length" style="whiteSpace=wrap;html=1;rounded=0;" vertex="1" parent="1">
          <mxGeometry x="697" y="330" width="120" height="60" as="geometry" />
        </mxCell>
        <mxCell id="7CUttHo1583P5TF1gWP4-63" value="" style="edgeStyle=orthogonalEdgeStyle;rounded=0;orthogonalLoop=1;jettySize=auto;html=1;" edge="1" parent="1" source="7CUttHo1583P5TF1gWP4-59" target="7CUttHo1583P5TF1gWP4-61">
          <mxGeometry relative="1" as="geometry" />
        </mxCell>
        <mxCell id="7CUttHo1583P5TF1gWP4-66" value="TRUE" style="edgeLabel;html=1;align=center;verticalAlign=middle;resizable=0;points=[];" connectable="0" vertex="1" parent="7CUttHo1583P5TF1gWP4-63">
          <mxGeometry x="-0.2939" y="1" relative="1" as="geometry">
            <mxPoint as="offset" />
          </mxGeometry>
        </mxCell>
        <mxCell id="7CUttHo1583P5TF1gWP4-68" value="" style="edgeStyle=orthogonalEdgeStyle;rounded=0;orthogonalLoop=1;jettySize=auto;html=1;" edge="1" parent="1" source="7CUttHo1583P5TF1gWP4-59" target="7CUttHo1583P5TF1gWP4-67">
          <mxGeometry relative="1" as="geometry" />
        </mxCell>
        <mxCell id="7CUttHo1583P5TF1gWP4-69" value="FALSE" style="edgeLabel;html=1;align=center;verticalAlign=middle;resizable=0;points=[];" connectable="0" vertex="1" parent="7CUttHo1583P5TF1gWP4-68">
          <mxGeometry x="-0.3496" y="3" relative="1" as="geometry">
            <mxPoint as="offset" />
          </mxGeometry>
        </mxCell>
        <mxCell id="7CUttHo1583P5TF1gWP4-59" value="panjangKata &amp;gt; 0" style="rhombus;whiteSpace=wrap;html=1;rounded=0;" vertex="1" parent="1">
          <mxGeometry x="550" y="320" width="80" height="80" as="geometry" />
        </mxCell>
        <mxCell id="7CUttHo1583P5TF1gWP4-64" value="" style="edgeStyle=orthogonalEdgeStyle;rounded=0;orthogonalLoop=1;jettySize=auto;html=1;entryX=0.5;entryY=0;entryDx=0;entryDy=0;" edge="1" parent="1" source="7CUttHo1583P5TF1gWP4-61" target="7CUttHo1583P5TF1gWP4-62">
          <mxGeometry relative="1" as="geometry">
            <Array as="points">
              <mxPoint x="460" y="240" />
            </Array>
          </mxGeometry>
        </mxCell>
        <mxCell id="7CUttHo1583P5TF1gWP4-61" value="hasilAkhir = hasilAkhir+ hasil[panjangKata - 1]" style="rounded=0;whiteSpace=wrap;html=1;" vertex="1" parent="1">
          <mxGeometry x="515" y="212.5" width="150" height="65" as="geometry" />
        </mxCell>
        <mxCell id="7CUttHo1583P5TF1gWP4-65" style="edgeStyle=orthogonalEdgeStyle;rounded=0;orthogonalLoop=1;jettySize=auto;html=1;entryX=0;entryY=0.5;entryDx=0;entryDy=0;" edge="1" parent="1" source="7CUttHo1583P5TF1gWP4-62" target="7CUttHo1583P5TF1gWP4-59">
          <mxGeometry relative="1" as="geometry" />
        </mxCell>
        <mxCell id="7CUttHo1583P5TF1gWP4-62" value="panjangKata= panjangKata - 1" style="rounded=0;whiteSpace=wrap;html=1;" vertex="1" parent="1">
          <mxGeometry x="400" y="330" width="120" height="60" as="geometry" />
        </mxCell>
        <mxCell id="YjiKDLAB807z-zuWr3qL-7" value="" style="edgeStyle=orthogonalEdgeStyle;rounded=0;orthogonalLoop=1;jettySize=auto;html=1;" edge="1" parent="1" source="7CUttHo1583P5TF1gWP4-67" target="YjiKDLAB807z-zuWr3qL-6">
          <mxGeometry relative="1" as="geometry" />
        </mxCell>
        <mxCell id="7CUttHo1583P5TF1gWP4-67" value="OUTPUT hasilAkhir" style="whiteSpace=wrap;html=1;rounded=0;shape=parallelogram;perimeter=parallelogramPerimeter;fixedSize=1;" vertex="1" parent="1">
          <mxGeometry x="530" y="450" width="120" height="60" as="geometry" />
        </mxCell>
        <mxCell id="7CUttHo1583P5TF1gWP4-71" value="" style="edgeStyle=orthogonalEdgeStyle;rounded=0;orthogonalLoop=1;jettySize=auto;html=1;" edge="1" parent="1" source="7CUttHo1583P5TF1gWP4-70" target="7CUttHo1583P5TF1gWP4-57">
          <mxGeometry relative="1" as="geometry" />
        </mxCell>
        <mxCell id="7CUttHo1583P5TF1gWP4-70" value="hasilAkhir = &quot;&quot;" style="rounded=0;whiteSpace=wrap;html=1;" vertex="1" parent="1">
          <mxGeometry x="697" y="215" width="120" height="60" as="geometry" />
        </mxCell>
        <mxCell id="7CUttHo1583P5TF1gWP4-72" value="javascript belajar saya" style="text;html=1;align=center;verticalAlign=middle;resizable=0;points=[];autosize=1;strokeColor=none;fillColor=none;" vertex="1" parent="1">
          <mxGeometry x="660" y="475" width="140" height="30" as="geometry" />
        </mxCell>
        <mxCell id="7CUttHo1583P5TF1gWP4-74" value="PROSES LOOP" style="text;html=1;align=center;verticalAlign=middle;resizable=0;points=[];autosize=1;strokeColor=none;fillColor=none;" vertex="1" parent="1">
          <mxGeometry x="930" y="-40" width="110" height="30" as="geometry" />
        </mxCell>
        <mxCell id="YjiKDLAB807z-zuWr3qL-6" value="END" style="ellipse;whiteSpace=wrap;html=1;" vertex="1" parent="1">
          <mxGeometry x="530" y="545" width="120" height="80" as="geometry" />
        </mxCell>
        <mxCell id="YjiKDLAB807z-zuWr3qL-21" style="rounded=0;orthogonalLoop=1;jettySize=auto;html=1;exitX=0;exitY=0;exitDx=0;exitDy=0;entryX=1;entryY=0.5;entryDx=0;entryDy=0;" edge="1" parent="1" source="YjiKDLAB807z-zuWr3qL-19" target="LleY3d3V7QsOfVH4p6SG-46">
          <mxGeometry relative="1" as="geometry">
            <mxPoint x="875" y="-10" as="targetPoint" />
            <mxPoint x="950" y="40" as="sourcePoint" />
          </mxGeometry>
        </mxCell>
        <mxCell id="YjiKDLAB807z-zuWr3qL-35" value="FALSE" style="edgeLabel;html=1;align=center;verticalAlign=middle;resizable=0;points=[];" connectable="0" vertex="1" parent="YjiKDLAB807z-zuWr3qL-21">
          <mxGeometry x="-0.5555" y="1" relative="1" as="geometry">
            <mxPoint x="-17" y="-25" as="offset" />
          </mxGeometry>
        </mxCell>
        <mxCell id="YjiKDLAB807z-zuWr3qL-25" value="" style="edgeStyle=orthogonalEdgeStyle;rounded=0;orthogonalLoop=1;jettySize=auto;html=1;" edge="1" parent="1" source="YjiKDLAB807z-zuWr3qL-19" target="YjiKDLAB807z-zuWr3qL-24">
          <mxGeometry relative="1" as="geometry" />
        </mxCell>
        <mxCell id="YjiKDLAB807z-zuWr3qL-34" value="TRUE" style="edgeLabel;html=1;align=center;verticalAlign=middle;resizable=0;points=[];" connectable="0" vertex="1" parent="YjiKDLAB807z-zuWr3qL-25">
          <mxGeometry x="-0.1867" y="1" relative="1" as="geometry">
            <mxPoint as="offset" />
          </mxGeometry>
        </mxCell>
        <mxCell id="YjiKDLAB807z-zuWr3qL-19" value="kalimat[i] == &#39; &#39;&lt;div&gt;OR&amp;nbsp;&lt;/div&gt;&lt;div&gt;i = panjangKalimat&lt;/div&gt;" style="rhombus;whiteSpace=wrap;html=1;" vertex="1" parent="1">
          <mxGeometry x="853" y="70" width="130" height="100" as="geometry" />
        </mxCell>
        <mxCell id="YjiKDLAB807z-zuWr3qL-27" value="" style="edgeStyle=orthogonalEdgeStyle;rounded=0;orthogonalLoop=1;jettySize=auto;html=1;" edge="1" parent="1" source="YjiKDLAB807z-zuWr3qL-24" target="YjiKDLAB807z-zuWr3qL-26">
          <mxGeometry relative="1" as="geometry" />
        </mxCell>
        <mxCell id="YjiKDLAB807z-zuWr3qL-37" value="TRUE" style="edgeLabel;html=1;align=center;verticalAlign=middle;resizable=0;points=[];" connectable="0" vertex="1" parent="YjiKDLAB807z-zuWr3qL-27">
          <mxGeometry x="0.1214" y="-1" relative="1" as="geometry">
            <mxPoint x="-6" y="-1" as="offset" />
          </mxGeometry>
        </mxCell>
        <mxCell id="YjiKDLAB807z-zuWr3qL-53" value="" style="edgeStyle=orthogonalEdgeStyle;rounded=0;orthogonalLoop=1;jettySize=auto;html=1;" edge="1" parent="1" source="YjiKDLAB807z-zuWr3qL-24" target="7CUttHo1583P5TF1gWP4-34">
          <mxGeometry relative="1" as="geometry" />
        </mxCell>
        <mxCell id="YjiKDLAB807z-zuWr3qL-56" value="FALSE" style="edgeLabel;html=1;align=center;verticalAlign=middle;resizable=0;points=[];" connectable="0" vertex="1" parent="YjiKDLAB807z-zuWr3qL-53">
          <mxGeometry x="-0.357" y="-2" relative="1" as="geometry">
            <mxPoint as="offset" />
          </mxGeometry>
        </mxCell>
        <mxCell id="YjiKDLAB807z-zuWr3qL-24" value="j &amp;gt; i" style="whiteSpace=wrap;html=1;shape=rhombus;perimeter=rhombusPerimeter;" vertex="1" parent="1">
          <mxGeometry x="1033" y="80" width="80" height="80" as="geometry" />
        </mxCell>
        <mxCell id="YjiKDLAB807z-zuWr3qL-31" value="" style="edgeStyle=orthogonalEdgeStyle;rounded=0;orthogonalLoop=1;jettySize=auto;html=1;" edge="1" parent="1" source="YjiKDLAB807z-zuWr3qL-26" target="YjiKDLAB807z-zuWr3qL-30">
          <mxGeometry relative="1" as="geometry" />
        </mxCell>
        <mxCell id="YjiKDLAB807z-zuWr3qL-26" value="kataSementara = kataSementara + kalimat[j]&amp;nbsp;" style="whiteSpace=wrap;html=1;" vertex="1" parent="1">
          <mxGeometry x="1170" y="90" width="120" height="60" as="geometry" />
        </mxCell>
        <mxCell id="YjiKDLAB807z-zuWr3qL-32" style="rounded=0;orthogonalLoop=1;jettySize=auto;html=1;exitX=-0.028;exitY=0.568;exitDx=0;exitDy=0;exitPerimeter=0;" edge="1" parent="1" source="YjiKDLAB807z-zuWr3qL-30" target="YjiKDLAB807z-zuWr3qL-24">
          <mxGeometry relative="1" as="geometry" />
        </mxCell>
        <mxCell id="YjiKDLAB807z-zuWr3qL-30" value="j = j + 1" style="rounded=0;whiteSpace=wrap;html=1;" vertex="1" parent="1">
          <mxGeometry x="1170" y="-10" width="120" height="60" as="geometry" />
        </mxCell>
      </root>
    </mxGraphModel>
  </diagram>
</mxfile>
